# xmcd
#
# Track frame offsets:
#	150
#	24902
#	42855
#	62902
#	92175
#	112272
#	138745
#	159630
#	183407
#	206982
#
# Disc length: 3054 seconds
#
# Revision: 3
# Processed by: cddbd v1.5.2PL0 Copyright (c) Steve Scherf et al.
# Submitted via: EZCDAudioConverter 8.0.2.1
#
DISCID=950bec0a
DTITLE=Various Artist - Tình Khúc Chiều Mưa
DYEAR=1988
DGENRE=
TTITLE0=Kim Anh - Ai đưa em về
TTITLE1=Thanh Tuyền - Tình Khúc Chiều Mưa
TTITLE2=Hương Lan - Tàu đêm năm cũ
TTITLE3=Tuấn Anh - Áo anh sứt chỉ đường tà
TTITLE4=Khánh Ly - Trên đỉnh mùa đông
TTITLE5=Thanh Tuyền - Tiếng còi trong sương đêm
TTITLE6=Kim Anh - Tình nghĩa đôi ta
TTITLE7=Tuấn Vũ - Anh không chết đâu anh
TTITLE8=Hương Lan - Hoa trắng thôi cài trên áo
TTITLE9=Tuấn Anh - Chiều mưa biên giới
EXTD=
EXTT0=
EXTT1=
EXTT2=
EXTT3=
EXTT4=
EXTT5=
EXTT6=
EXTT7=
EXTT8=
EXTT9=
PLAYORDER=
